<svg class="svg__wrapper" viewBox="0 0 1440 937" fill="none" xmlns="http://www.w3.org/2000/svg">
<style>
.zoom {
  transform-origin: center;
  animation: ripple 3000ms infinite alternate ease-in-out;
}
.zoom:nth-child(1) {
  animation-delay: 300ms;
}
.zoom:nth-child(2) {
  animation-delay: 600ms;
}
.zoom:nth-child(3) {
  animation-delay: 900ms;
}
@keyframes ripple {
  from {
    transform: scale(0.8);
  }
  to {
    transform: scale(1);
  }
}
</style>
<path d="M374.905 355.862C374.905 355.862 373.969 339.443 375.397 334.689C376.824 329.935 378.028 319.31 377.858 316.314C377.858 316.314 378.826 319.747 378.464 322.462C378.464 322.462 379.993 318.459 379.639 315.667C379.639 315.667 381.313 319.656 381.587 322.026C381.587 322.026 383.527 317.134 382.935 314.248C382.935 314.248 385.585 318.737 385.629 320.683C385.629 320.683 386.007 317.281 385.382 315.86L386.787 319.812C386.787 319.812 386.811 316.192 386.232 315.341L388.194 318.528C388.194 318.528 390.852 313.623 385.649 309.523C385.649 309.523 389.611 311.619 390.602 314.096C390.602 314.096 390.735 310.927 389.07 309.153C389.07 309.153 391.765 310.413 392.98 312.236C392.98 312.236 393.021 309.185 390.428 307.39L393.364 308.595C393.364 308.595 391.061 304.622 388.879 304.481L392.147 304.228C392.147 304.228 389.791 301.271 382.766 302.155C382.766 302.155 386.226 297.538 390.632 297.281C390.632 297.281 388.078 296.384 385.61 296.985L387.472 295.413C387.472 295.413 384.877 295.024 381.892 297.258L384.58 291.067C384.58 291.067 383.635 290.815 382.378 292.301C382.354 292.33 382.329 292.36 382.304 292.391C381.01 293.976 382.602 288.597 382.602 288.597C382.602 288.597 379.879 288.564 378.89 289.858L379.266 287.862C379.266 287.862 376.201 288.36 375.463 290.497L373.487 289.224C373.487 289.224 373.806 290.967 373.8 291.236C373.8 291.236 371.56 289.688 370.369 289.451C370.369 289.451 372.304 293.804 372.748 296.597C372.748 296.597 367.874 292.475 365.239 292.504C365.239 292.504 370.864 296.494 372.142 299.486C372.142 299.486 367.168 297.096 361.426 302.05C361.426 302.05 368.896 300.069 372.006 302.774C372.006 302.774 362.472 300.817 359.613 307.932L362.199 307.454C362.199 307.454 360.753 310.413 360.856 313.706C360.856 313.706 363.575 310.059 366.211 310L363.185 313.999C363.185 313.999 367.565 310.989 369.104 311.743C369.104 311.743 366.332 315.09 366.47 319.461C366.47 319.461 370.068 314.039 372.519 314.216C372.519 314.216 370.958 316.992 371.165 320.946C371.165 320.946 373.074 316.084 374.576 315.879C374.576 315.879 375.033 327.14 373.29 335.178C371.547 343.217 373.33 351.516 372.108 355.139" fill="#06122F"/>
<path d="M401.092 355.289C401.092 355.289 397.29 336.25 398.175 330.457C399.059 324.664 398.715 312.046 398.022 308.572C398.022 308.572 399.72 312.426 399.744 315.659C399.744 315.659 400.872 310.726 399.997 307.522C399.997 307.522 402.612 311.909 403.323 314.634C403.323 314.634 404.783 308.596 403.616 305.319C403.616 305.319 407.454 310.131 407.827 312.399C407.827 312.399 407.708 308.359 406.742 306.801L409.037 311.19C409.037 311.19 408.468 306.954 407.65 306.055L410.469 309.458C410.469 309.458 412.768 303.285 406.009 299.35C406.009 299.35 410.987 301.147 412.553 303.879C412.553 303.879 412.186 300.153 409.947 298.354C409.947 298.354 413.305 299.382 415.026 301.313C415.026 301.313 414.57 297.74 411.243 296.068L414.874 296.993C414.874 296.993 411.527 292.728 408.953 292.924L412.733 292.089C412.733 292.089 409.491 289.02 401.424 291.212C401.424 291.212 404.707 285.244 409.816 284.217C409.816 284.217 406.683 283.59 403.896 284.699L405.814 282.553C405.814 282.553 402.716 282.526 399.595 285.63L401.716 277.95C401.716 277.95 400.57 277.811 399.346 279.755C399.322 279.794 399.298 279.832 399.274 279.872C398.023 281.939 398.996 275.389 398.996 275.389C398.996 275.389 395.807 275.799 394.866 277.474L394.975 275.079C394.975 275.079 391.475 276.165 390.964 278.786L388.445 277.623C388.445 277.623 389.105 279.608 389.142 279.924C389.142 279.924 386.269 278.483 384.836 278.403C384.836 278.403 387.816 283.173 388.796 286.365C388.796 286.365 382.419 282.349 379.344 282.816C379.344 282.816 386.577 286.554 388.564 289.841C388.564 289.841 382.356 287.867 376.46 294.604C376.46 294.604 384.866 291.057 388.947 293.707C388.947 293.707 377.48 292.991 375.312 301.779L378.255 300.793C378.255 300.793 377.053 304.49 377.717 308.323C377.717 308.323 380.294 303.612 383.365 303.109L380.487 308.282C380.487 308.282 385.111 304.042 387.034 304.669C387.034 304.669 384.346 309.038 385.229 314.126C385.229 314.126 388.541 307.194 391.435 306.997C391.435 306.997 390.068 310.5 390.962 315.088C390.962 315.088 392.392 309.089 394.113 308.603C394.113 308.603 396.505 321.691 395.793 331.375C395.081 341.059 398.534 350.467 397.704 354.903" fill="#06122F"/>
<path class="zoom" d="M906.035 704.882C1070.85 704.882 1204.45 571.332 1204.45 406.59C1204.45 241.847 1070.85 108.297 906.035 108.297C741.222 108.297 607.615 241.847 607.615 406.59C607.615 571.332 741.222 704.882 906.035 704.882Z" fill="#DAECFF"/>
<path class="zoom" opacity="0.4" d="M906.034 754.847C1098.45 754.847 1254.44 598.927 1254.44 406.59C1254.44 214.253 1098.45 58.333 906.034 58.333C713.615 58.333 557.629 214.253 557.629 406.59C557.629 598.927 713.615 754.847 906.034 754.847Z" fill="#DAECFF"/>
<path class="zoom" opacity="0.4" d="M906.034 813.18C1130.68 813.18 1312.8 631.143 1312.8 406.59C1312.8 182.036 1130.68 0 906.034 0C681.385 0 499.271 182.036 499.271 406.59C499.271 631.143 681.385 813.18 906.034 813.18Z" fill="#DAECFF"/>
<path d="M1310.32 373.078C1310.32 373.078 1306.52 354.039 1307.4 348.246C1308.29 342.453 1307.94 329.835 1307.25 326.361C1307.25 326.361 1308.95 330.215 1308.97 333.448C1308.97 333.448 1310.1 328.515 1309.23 325.311C1309.23 325.311 1311.84 329.698 1312.55 332.423C1312.55 332.423 1314.01 326.385 1312.84 323.108C1312.84 323.108 1316.68 327.92 1317.06 330.188C1317.06 330.188 1316.94 326.148 1315.97 324.59L1318.27 328.979C1318.27 328.979 1317.7 324.743 1316.88 323.844L1319.7 327.247C1319.7 327.247 1322 321.074 1315.24 317.139C1315.24 317.139 1320.22 318.936 1321.78 321.668C1321.78 321.668 1321.41 317.943 1319.18 316.143C1319.18 316.143 1322.53 317.171 1324.25 319.102C1324.25 319.102 1323.8 315.529 1320.47 313.857L1324.1 314.782C1324.1 314.782 1320.76 310.517 1318.18 310.713L1321.96 309.878C1321.96 309.878 1318.72 306.809 1310.65 309.001C1310.65 309.001 1313.94 303.033 1319.05 302.006C1319.05 302.006 1315.91 301.379 1313.13 302.488L1315.04 300.342C1315.04 300.342 1311.94 300.315 1308.82 303.42L1310.94 295.739C1310.94 295.739 1309.8 295.6 1308.57 297.544C1308.55 297.583 1308.53 297.622 1308.5 297.661C1307.25 299.728 1308.22 293.178 1308.22 293.178C1308.22 293.178 1305.04 293.588 1304.09 295.263L1304.2 292.868C1304.2 292.868 1300.7 293.955 1300.19 296.575L1297.67 295.412C1297.67 295.412 1298.33 297.397 1298.37 297.713C1298.37 297.713 1295.5 296.272 1294.06 296.192C1294.06 296.192 1297.04 300.962 1298.02 304.154C1298.02 304.154 1291.65 300.138 1288.57 300.605C1288.57 300.605 1295.81 304.343 1297.79 307.63C1297.79 307.63 1291.58 305.656 1285.69 312.393C1285.69 312.393 1294.09 308.846 1298.18 311.496C1298.18 311.496 1286.71 310.78 1284.54 319.568L1287.48 318.582C1287.48 318.582 1286.28 322.279 1286.95 326.112C1286.95 326.112 1289.52 321.401 1292.59 320.898L1289.72 326.071C1289.72 326.071 1294.34 321.831 1296.26 322.458C1296.26 322.458 1293.57 326.827 1294.46 331.915C1294.46 331.915 1297.77 324.983 1300.66 324.786C1300.66 324.786 1299.3 328.289 1300.19 332.877C1300.19 332.877 1301.62 326.878 1303.34 326.392C1303.34 326.392 1305.73 339.48 1305.02 349.164C1304.31 358.848 1307.76 368.256 1306.93 372.692" fill="#142038"/>
<path d="M928.254 397.41L1017.1 273.853L1103.36 425.317L928.254 397.41Z" fill="#DAECFF"/>
<path d="M1017.1 273.853L1156.52 402.119L1100.74 425.111L1017.1 273.853Z" fill="#8EC6FF"/>
<path d="M1052.91 385.061L1114.92 306.428L1176.52 403.827L1052.91 385.061Z" fill="#DAECFF"/>
<path d="M1114.92 306.428L1213.89 389.251L1174.68 403.681L1114.92 306.428Z" fill="#8EC6FF"/>
<path d="M1403.62 554.606C1403.62 554.606 1537.68 417.029 1445.84 382.737C1227.16 301.082 943.033 404.224 906.035 395.68C869.038 387.136 626.094 329.347 563.111 334.436C500.128 339.526 368.687 346.867 339.848 330.241C311.009 313.616 295.709 317.263 272.298 320.421C248.888 323.579 236.591 315.001 210.708 311.467C184.826 307.934 164.966 321.764 143.029 318.922C121.093 316.08 77.3455 288.94 21.6874 316.564L-8.70996 546.888L1403.62 554.606Z" fill="#DAECFF"/>
<path d="M107.372 549.27C107.372 549.27 116.474 504.217 115.687 501.967C114.899 499.718 99.1584 500.796 100.711 484.843C102.264 468.889 100.944 461.854 107.155 461.603C113.367 461.352 111.217 475.339 111.349 481.525C111.482 487.71 116.395 495.579 118.374 492.274C120.352 488.97 119.035 451.385 132.102 453.228C145.17 455.071 126.341 495.449 131.539 497.831C136.737 500.213 136.769 482.604 144.668 484.411C152.567 486.218 147.211 508.318 130.399 507.337L120.774 551.917" fill="#8EC6FF"/>
<path d="M78.1765 437.091C72.0899 435.828 71.9226 449.979 70.7797 456.059C69.6368 462.14 63.5022 469.099 62.0914 465.516C60.6806 461.933 68.1284 425.07 54.9347 424.752C41.741 424.434 53.7114 467.346 48.194 468.847C42.6767 470.347 45.5261 452.97 37.4373 453.462C29.3485 453.953 31.0171 476.632 47.7639 478.411L48.8583 501.037C45.009 501.123 46.3758 489.553 40.1684 489.623C33.7705 489.694 35.8703 505.921 49.1853 507.806L49.9668 523.964L50.8767 523.936L52.5609 540.452L63.3885 540.623C63.3885 540.623 62.6474 532.135 62.0282 523.591L63.6215 523.542C63.6215 523.542 63.3359 515.391 63.0907 505.801C66.7004 505.498 74.5683 505.643 74.8089 496.561C75.1107 485.168 76.8253 480.445 71.9484 479.332C67.0714 478.218 67.4293 488.328 66.7328 492.634C66.3248 495.156 64.5688 497.831 62.933 499.094C62.6929 487.751 62.6034 476.527 63.1559 475.518C64.3009 473.427 79.6535 477.063 80.7312 461.072C81.8089 445.08 84.263 438.354 78.1765 437.091Z" fill="#8EC6FF"/>
<path d="M181.332 454.654C176.278 453.605 176.139 465.356 175.191 470.404C174.242 475.453 169.147 481.232 167.976 478.257C166.805 475.281 172.989 444.671 162.034 444.407C151.078 444.143 161.018 479.777 156.437 481.022C151.855 482.268 154.221 467.839 147.505 468.247C140.788 468.655 142.174 487.486 156.079 488.964L156.988 507.751C153.792 507.823 154.927 498.216 149.772 498.273C144.46 498.333 146.203 511.807 157.259 513.372L157.909 526.789L158.664 526.766L160.063 540.48L169.053 540.623C169.053 540.623 168.438 533.574 167.924 526.48L169.247 526.439C169.247 526.439 169.01 519.671 168.806 511.707C171.803 511.455 178.337 511.576 178.536 504.035C178.787 494.574 180.211 490.652 176.161 489.728C172.112 488.804 172.409 497.198 171.831 500.774C171.492 502.868 170.034 505.09 168.675 506.138C168.476 496.719 168.402 487.399 168.86 486.561C169.811 484.825 182.559 487.845 183.454 474.566C184.349 461.287 186.386 455.703 181.332 454.654Z" fill="#8EC6FF"/>
<path d="M1249.26 412.472C1245.71 411.737 1245.62 419.973 1244.95 423.512C1244.29 427.051 1240.72 431.102 1239.9 429.017C1239.07 426.931 1243.41 405.475 1235.73 405.29C1228.05 405.105 1235.02 430.082 1231.81 430.955C1228.6 431.828 1230.25 421.714 1225.55 422C1220.84 422.286 1221.81 435.486 1231.56 436.522L1232.19 449.691C1229.95 449.742 1230.75 443.008 1227.14 443.048C1223.41 443.089 1224.63 452.534 1232.38 453.631L1232.84 463.037L1233.37 463.02L1234.35 472.633L1240.65 472.733C1240.65 472.733 1240.22 467.792 1239.86 462.82L1240.79 462.791C1240.79 462.791 1240.62 458.047 1240.48 452.464C1242.58 452.288 1247.16 452.372 1247.3 447.087C1247.47 440.455 1248.47 437.706 1245.63 437.058C1242.79 436.41 1243 442.294 1242.6 444.801C1242.36 446.269 1241.34 447.826 1240.39 448.561C1240.25 441.959 1240.19 435.426 1240.52 434.838C1241.18 433.622 1250.12 435.738 1250.75 426.43C1251.37 417.122 1252.8 413.207 1249.26 412.472Z" fill="#8EC6FF"/>
<path d="M1363.11 439.011C1363.11 439.011 1361.47 410.298 1363.96 401.983C1366.46 393.668 1368.57 375.088 1368.27 369.849C1368.27 369.849 1369.96 375.853 1369.33 380.6C1369.33 380.6 1372 373.598 1371.38 368.717C1371.38 368.717 1374.31 375.693 1374.79 379.837C1374.79 379.837 1378.18 371.282 1377.15 366.235C1377.15 366.235 1381.78 374.086 1381.86 377.489C1381.86 377.489 1382.52 371.539 1381.43 369.054L1383.88 375.967C1383.88 375.967 1383.93 369.636 1382.91 368.147L1386.34 373.721C1386.34 373.721 1390.99 365.143 1381.89 357.972C1381.89 357.972 1388.82 361.639 1390.55 365.969C1390.55 365.969 1390.79 360.428 1387.88 357.326C1387.88 357.326 1392.59 359.528 1394.71 362.717C1394.71 362.717 1394.79 357.381 1390.25 354.241L1395.39 356.348C1395.39 356.348 1391.36 349.4 1387.54 349.155L1393.26 348.712C1393.26 348.712 1389.14 343.54 1376.85 345.087C1376.85 345.087 1382.9 337.012 1390.61 336.562C1390.61 336.562 1386.14 334.994 1381.83 336.045L1385.08 333.295C1385.08 333.295 1380.55 332.614 1375.32 336.523L1380.03 325.695C1380.03 325.695 1378.37 325.254 1376.18 327.853C1376.13 327.904 1376.09 327.957 1376.05 328.01C1373.78 330.783 1376.57 321.376 1376.57 321.376C1376.57 321.376 1371.8 321.318 1370.08 323.581L1370.73 320.09C1370.73 320.09 1365.37 320.96 1364.08 324.697L1360.63 322.471C1360.63 322.471 1361.18 325.519 1361.17 325.99C1361.17 325.99 1357.26 323.283 1355.17 322.869C1355.17 322.869 1358.55 330.482 1359.33 335.367C1359.33 335.367 1350.81 328.157 1346.2 328.208C1346.2 328.208 1356.04 335.186 1358.27 340.418C1358.27 340.418 1349.57 336.24 1339.53 344.902C1339.53 344.902 1352.59 341.438 1358.03 346.169C1358.03 346.169 1341.36 342.747 1336.36 355.19L1340.88 354.353C1340.88 354.353 1338.35 359.527 1338.54 365.287C1338.54 365.287 1343.29 358.909 1347.9 358.806L1342.61 365.8C1342.61 365.8 1350.27 360.536 1352.96 361.854C1352.96 361.854 1348.11 367.707 1348.35 375.352C1348.35 375.352 1354.65 365.87 1358.93 366.178C1358.93 366.178 1356.2 371.034 1356.56 377.95C1356.56 377.95 1359.9 369.446 1362.53 369.088C1362.53 369.088 1363.33 388.782 1360.28 402.839C1357.23 416.897 1360.35 431.412 1358.21 437.747" fill="#142038"/>
<path d="M1408.9 438.01C1408.9 438.01 1402.25 404.714 1403.8 394.583C1405.34 384.452 1404.74 362.385 1403.53 356.309C1403.53 356.309 1406.5 363.049 1406.54 368.703C1406.54 368.703 1408.52 360.077 1406.99 354.473C1406.99 354.473 1411.56 362.145 1412.8 366.912C1412.8 366.912 1415.36 356.351 1413.31 350.622C1413.31 350.622 1420.03 359.037 1420.68 363.002C1420.68 363.002 1420.47 355.938 1418.78 353.213L1422.79 360.888C1422.79 360.888 1421.8 353.481 1420.37 351.908L1425.3 357.858C1425.3 357.858 1429.32 347.063 1417.5 340.181C1417.5 340.181 1426.21 343.325 1428.94 348.102C1428.94 348.102 1428.3 341.586 1424.39 338.439C1424.39 338.439 1430.26 340.237 1433.27 343.614C1433.27 343.614 1432.47 337.365 1426.65 334.442L1433 336.059C1433 336.059 1427.15 328.6 1422.65 328.942L1429.26 327.482C1429.26 327.482 1423.59 322.116 1409.48 325.949C1409.48 325.949 1415.22 315.512 1424.16 313.717C1424.16 313.717 1418.68 312.619 1413.81 314.559L1417.16 310.807C1417.16 310.807 1411.74 310.759 1406.28 316.188L1409.99 302.756C1409.99 302.756 1407.99 302.513 1405.85 305.913C1405.81 305.98 1405.76 306.048 1405.72 306.118C1403.53 309.732 1405.24 298.278 1405.24 298.278C1405.24 298.278 1399.66 298.994 1398.01 301.924L1398.2 297.735C1398.2 297.735 1392.08 299.636 1391.19 304.217L1386.78 302.185C1386.78 302.185 1387.94 305.656 1388 306.208C1388 306.208 1382.98 303.689 1380.47 303.547C1380.47 303.547 1385.68 311.89 1387.4 317.472C1387.4 317.472 1376.25 310.449 1370.87 311.267C1370.87 311.267 1383.52 317.804 1386.99 323.552C1386.99 323.552 1376.14 320.1 1365.82 331.882C1365.82 331.882 1380.52 325.679 1387.66 330.313C1387.66 330.313 1367.61 329.061 1363.81 344.43L1368.96 342.707C1368.96 342.707 1366.86 349.172 1368.02 355.876C1368.02 355.876 1372.53 347.636 1377.9 346.757L1372.87 355.805C1372.87 355.805 1380.95 348.389 1384.32 349.486C1384.32 349.486 1379.61 357.127 1381.16 366.025C1381.16 366.025 1386.95 353.903 1392.01 353.558C1392.01 353.558 1389.62 359.684 1391.18 367.708C1391.18 367.708 1393.68 357.217 1396.7 356.366C1396.7 356.366 1400.88 379.256 1399.63 396.192C1398.39 413.127 1404.43 429.581 1402.97 437.338" fill="#06122F"/>
<path d="M-8.70312 513.66C-8.70312 513.66 255.179 561.886 437.667 448.322C437.667 448.322 452.183 426.542 636.745 448.322C821.307 470.101 802.644 424.987 931.215 429.654C1059.79 434.32 1345.44 491.88 1442.91 446.766L1258.86 535.44L-8.70312 711.231V513.66Z" fill="#8EC6FF"/>
<path d="M-8.70312 809.493H1442.91V384.86C1326.26 501.518 941.583 442.411 584.902 551.893C228.22 661.375 -8.70312 649.283 -8.70312 649.283V809.493Z" fill="#1195F7"/>
<path d="M26.9648 869.54H1442.33V668.85C1293.46 783.362 722.421 628.019 435.782 701.515C149.142 775.01 26.9648 757.352 26.9648 757.352V869.54Z" fill="#0053FB"/>
<path d="M-8.70312 710.061C-8.70312 710.061 280.339 754.824 354.978 804.738C429.618 854.652 644.205 804.482 734.395 833.151C824.584 861.819 967.643 782.981 1039.17 792.537C1110.7 802.093 1244.85 830.761 1257.08 828.372C1269.31 825.983 1293.07 783.669 1442.91 725.647V937H-8.70312" fill="#06122F"/>
<path d="M1357.26 783.248C1357.26 783.248 1333.53 673.11 1329.55 668.827C1325.57 664.545 1291.27 682.391 1279.11 645.028C1266.95 607.665 1257.09 593.152 1270.8 586.501C1284.51 579.852 1293.39 613.383 1299.76 627.15C1306.12 640.916 1324.88 653.78 1326.08 644.417C1327.28 635.054 1287.47 551.907 1318.63 543.242C1349.8 534.577 1347.1 643.744 1361.11 644.003C1375.12 644.261 1357.92 604.67 1377.44 600.989C1396.96 597.309 1406.6 652.208 1367.87 666.477L1389.96 776.064" fill="#06122F"/>
<path d="M1344.32 792.758C1344.32 792.758 1326.67 740.383 1327.27 737.581C1327.87 734.779 1346.81 733.694 1342.55 714.896C1338.3 696.098 1338.81 687.506 1331.36 688.143C1323.92 688.779 1328.59 705.141 1329.36 712.54C1330.14 719.939 1325.46 730.066 1322.6 726.422C1319.75 722.777 1315.65 677.742 1300.34 681.909C1285.03 686.076 1313.58 731.41 1307.74 735.035C1301.89 738.659 1299.2 717.657 1290.05 721.003C1280.9 724.348 1290.62 749.906 1310.53 746.203L1328.73 797.935" fill="#06122F"/>
<path d="M1445.36 734.33L1430.71 655.095V702.084L1414.79 664.948L1421.61 713.452L1408.91 698.294L1414.03 718.524H1399.62L1414.03 730.883L1399.62 736.945L1422.49 764.229" fill="#06122F"/>
<path d="M1306.46 833.251L1333.19 757.235L1309.81 797.994L1304.33 769.194L1296.26 803.331L1292.78 783.865L1287.15 803.96L1274.66 796.796L1281 814.681L1265.49 812.777L1271.74 847.815" fill="#06122F"/>
<path d="M94.132 769.861C94.132 769.861 84.7567 605.447 99.0503 557.838C113.344 510.229 125.404 403.84 123.702 373.838C123.702 373.838 133.396 408.22 129.768 435.403C129.768 435.403 145.086 395.308 141.538 367.36C141.538 367.36 158.297 407.299 161.044 431.034C161.044 431.034 180.465 382.045 174.541 353.144C174.541 353.144 201.076 398.104 201.523 417.59C201.523 417.59 205.311 383.52 199.046 369.293L213.116 408.87C213.116 408.87 213.357 372.621 207.56 364.097L227.203 396.013C227.203 396.013 253.822 346.892 201.718 305.833C201.718 305.833 241.398 326.828 251.314 351.628C251.314 351.628 252.649 319.898 235.975 302.133C235.975 302.133 262.961 314.744 275.127 333.003C275.127 333.003 275.536 302.45 249.574 284.47L278.97 296.538C278.97 296.538 255.913 256.752 234.064 255.347L266.796 252.809C266.796 252.809 243.202 223.198 172.854 232.055C172.854 232.055 207.5 185.816 251.623 183.243C251.623 183.243 226.053 174.261 201.333 180.279L219.983 164.532C219.983 164.532 193.995 160.633 164.1 183.012L191.017 121.014C191.017 121.014 181.562 118.489 168.975 133.37C168.727 133.663 168.478 133.962 168.229 134.268C155.271 150.148 171.208 96.2846 171.208 96.2846C171.208 96.2846 143.938 95.9521 134.045 108.906L137.806 88.9182C137.806 88.9182 107.115 93.8997 99.7246 115.302L79.9364 102.559C79.9364 102.559 83.1285 120.011 83.0659 122.706C83.0659 122.706 60.644 107.205 48.709 104.831C48.709 104.831 68.0812 148.427 72.528 176.395C72.528 176.395 23.7263 135.114 -2.65903 135.401C-2.65903 135.401 53.6673 175.359 66.4616 205.319C66.4616 205.319 16.6576 181.392 -40.847 230.997C-40.847 230.997 33.9528 211.157 65.0983 238.246C65.0983 238.246 -30.3693 218.655 -59 289.902L-33.11 285.109C-33.11 285.109 -47.5861 314.736 -46.5524 347.719C-46.5524 347.719 -19.3264 311.196 7.06551 310.61L-23.2394 350.657C-23.2394 350.657 20.6247 320.512 36.0369 328.061C36.0369 328.061 8.28171 361.575 9.66422 405.353C9.66422 405.353 45.6953 351.056 70.2346 352.824C70.2346 352.824 54.6019 380.626 56.681 420.225C56.681 420.225 75.7959 371.529 90.8311 369.481C90.8311 369.481 95.4093 482.247 77.9549 562.743C60.5005 643.238 78.3562 726.349 66.124 762.62" fill="#06122F"/>
<path d="M890.98 775.517C887.497 762.856 873.88 711.894 862.797 697.333C851.714 682.773 857.73 659.033 860.263 660.932C862.797 662.831 860.263 685.622 865.963 689.736C871.663 693.851 874.513 670.111 864.063 653.652C853.613 637.192 831.13 624.847 813.396 619.783C795.663 614.718 796.296 599.841 782.996 597.626C769.697 595.41 756.713 608.704 742.147 604.589C727.58 600.474 718.396 589.079 705.096 592.244C691.797 595.41 681.03 620.099 668.68 621.049C656.33 621.998 636.063 660.932 610.096 644.789C584.13 628.646 589.513 609.337 580.013 596.992C570.513 584.648 563.229 580.85 557.213 583.065C551.196 585.281 546.911 591.019 539.163 592.244C539.163 592.244 522.063 595.41 514.147 594.46C506.23 593.51 496.73 609.97 499.896 613.452C503.063 616.934 509.713 613.768 512.563 615.668C515.413 617.567 510.029 617.883 515.096 621.049C520.163 624.214 528.713 621.365 537.263 623.581C545.813 625.797 548.98 631.811 555.946 640.674C562.913 649.537 594.579 701.448 649.046 691.953C676.224 699.811 671.846 725.505 676.279 754.309C680.713 783.114 692.113 786.279 689.896 803.055C687.679 819.831 692.429 840.723 673.746 850.218C655.063 859.714 675.329 859.081 681.663 858.764C687.996 858.448 703.762 841.355 701.579 831.543C699.397 821.731 697.429 804.954 701.579 808.753C705.73 812.551 736.13 845.47 742.78 844.205C749.43 842.938 743.413 832.81 742.78 827.428C742.147 822.047 702.579 805.956 703.212 792.661C703.846 779.367 697.225 733.542 708.941 727.456C720.658 721.369 756.397 730.885 764.314 723.289C772.23 715.692 787.43 706.513 792.497 713.159C797.564 719.807 795.031 730.252 798.83 734.683C802.63 739.115 808.33 786.278 788.064 807.486C767.797 828.694 759.881 842.938 761.147 847.053C762.414 851.168 772.864 848.319 776.981 839.456C781.097 830.593 792.389 812.551 802.577 804.637C812.764 796.724 812.131 745.763 816.564 740.381C820.997 735 828.914 722.972 828.914 716.325C828.914 709.678 837.148 720.124 844.114 728.353C851.081 736.583 873.881 769.502 873.564 776.466C873.248 783.43 877.681 836.924 868.181 843.255C858.681 849.585 855.514 852.434 859.948 853.384C864.381 854.333 877.997 856.866 878.948 850.535C879.897 844.204 894.464 788.178 890.98 775.517ZM688.807 735.902C692.851 741.207 692.264 778.429 692.264 778.429C677.1 753.418 684.763 730.597 688.807 735.902Z" fill="#142038"/>
<path d="M436.432 617.5C436.432 617.5 440.476 642.764 448.563 648.154C456.651 653.543 460.358 617.5 452.607 613.795" fill="#CE913E"/>
<path d="M452.264 633.523C452.264 633.523 452.264 623.062 445.785 622.564C439.306 622.065 432.828 623.56 433.326 614.095C433.824 604.631 438.683 597.657 449.024 599.4C459.365 601.144 473.568 609.612 474.689 614.22C475.811 618.827 467.214 620.197 470.204 624.93C473.194 629.662 476.683 632.278 479.424 642.863C482.165 653.448 493.129 682.839 485.404 691.058C477.68 699.278 479.424 705.006 481.916 724.932C484.408 744.858 471.45 756.813 479.175 768.769C486.9 780.724 520.289 812.108 517.05 818.085C513.811 824.063 482.913 835.77 485.405 830.29C487.897 824.81 495.372 819.081 491.136 816.591C486.9 814.1 466.467 810.862 464.225 802.394C461.982 793.925 458.743 787.2 453.759 790.189C448.776 793.178 446.533 820.825 446.783 828.796C447.032 836.766 433.327 842.246 423.111 842.246C412.894 842.246 412.894 836.019 420.121 833.528C427.347 831.038 433.576 824.811 424.108 822.569C424.108 822.569 415.137 825.06 418.626 810.364C422.114 795.669 435.819 769.517 430.835 760.55C425.851 751.584 433.825 725.431 436.566 712.23C439.307 699.029 446.783 691.308 438.56 689.814C430.337 688.319 424.606 688.568 424.606 681.594C424.606 674.621 431.334 678.606 429.34 674.621C427.347 670.636 432.081 671.134 434.075 673.873C436.068 676.613 448.776 683.587 449.025 673.624C449.275 663.661 441.8 648.966 444.54 643.736" fill="#142038"/>
<path d="M442.329 634.68C442.329 634.68 432.04 634.576 435.252 632.658C438.778 630.553 442.329 627.1 439.801 623.227" fill="#CE913E"/>
<path d="M430.216 688.313C430.216 688.313 430.873 689.045 432.141 690.383C433.405 691.724 435.299 693.654 437.725 696.09C442.589 700.949 449.744 707.696 458.827 715.178C463.379 718.905 468.412 722.816 473.929 726.67C476.675 728.616 479.573 730.496 482.556 732.381C485.572 734.211 488.649 736.087 491.89 737.789L493.099 738.443L494.33 739.066C495.154 739.48 495.98 739.895 496.809 740.312C498.492 741.092 500.172 741.915 501.908 742.629C503.625 743.396 505.395 744.052 507.162 744.739C508.053 745.064 508.953 745.365 509.852 745.681C510.302 745.834 510.749 746.002 511.204 746.143L512.574 746.556L513.946 746.97C514.403 747.114 514.862 747.245 515.328 747.355C516.256 747.59 517.185 747.825 518.116 748.061C519.994 748.445 521.872 748.877 523.781 749.118C524.733 749.258 525.683 749.419 526.643 749.484C527.602 749.563 528.56 749.678 529.52 749.73L532.405 749.821C533.367 749.845 534.326 749.773 535.287 749.755C539.122 749.572 542.946 749.056 546.627 748.024C550.299 746.976 553.833 745.525 557.155 743.721C563.714 739.966 569.447 734.989 574.023 729.343C578.643 723.729 582.369 717.691 585.465 711.748C586.213 710.246 586.951 708.765 587.678 707.306C588.341 705.815 588.995 704.346 589.637 702.903C590.311 701.472 590.85 700.011 591.424 698.597C591.707 697.887 591.988 697.185 592.266 696.489C592.545 695.794 592.825 695.107 593.059 694.41C593.551 693.026 594.032 691.67 594.502 690.345C594.736 689.682 594.968 689.026 595.197 688.378C595.406 687.724 595.612 687.077 595.816 686.439C596.619 683.883 597.456 681.477 598.075 679.166C598.719 676.863 599.37 674.719 599.886 672.714C600.392 670.705 600.858 668.86 601.278 667.193C601.715 665.53 602.036 664.029 602.337 662.728C602.635 661.425 602.889 660.318 603.094 659.419C603.505 657.622 603.724 656.664 603.724 656.664C603.724 656.664 603.552 657.632 603.229 659.446C603.067 660.354 602.867 661.474 602.633 662.79C602.402 664.107 602.138 665.623 601.758 667.302C601.397 668.986 600.998 670.85 600.564 672.88C600.12 674.909 599.545 677.081 598.982 679.414C597.819 684.073 596.32 689.286 594.426 694.897C594.208 695.605 593.944 696.305 593.681 697.014C593.42 697.722 593.155 698.438 592.889 699.161C592.347 700.604 591.84 702.092 591.198 703.557C590.578 705.031 589.948 706.53 589.309 708.053C588.6 709.546 587.88 711.062 587.15 712.599C584.121 718.69 580.453 724.934 575.745 730.755C575.451 731.117 575.182 731.502 574.864 731.849L573.924 732.904C573.296 733.609 572.666 734.317 572.033 735.027C571.373 735.712 570.676 736.368 569.995 737.044C569.306 737.713 568.639 738.408 567.882 739.014C567.145 739.64 566.405 740.269 565.664 740.899C565.303 741.227 564.892 741.494 564.502 741.788L563.316 742.655L562.124 743.518C561.725 743.805 561.291 744.043 560.876 744.307C560.034 744.821 559.199 745.35 558.345 745.852C554.867 747.76 551.154 749.302 547.294 750.417C543.426 751.515 539.41 752.079 535.396 752.278C534.391 752.294 533.386 752.363 532.382 752.335L529.373 752.229C528.373 752.17 527.379 752.05 526.383 751.962C525.383 751.89 524.399 751.72 523.414 751.572C521.434 751.312 519.497 750.861 517.559 750.456C516.601 750.209 515.644 749.963 514.69 749.717C514.21 749.602 513.737 749.465 513.269 749.316L511.86 748.886L510.454 748.456C509.988 748.308 509.531 748.136 509.069 747.977C508.151 747.648 507.226 747.342 506.318 746.996C504.517 746.274 502.715 745.581 500.973 744.78C499.208 744.03 497.508 743.174 495.803 742.359C494.959 741.936 494.129 741.493 493.296 741.064L492.052 740.416L490.832 739.738C490.021 739.286 489.213 738.835 488.409 738.387C487.617 737.919 486.828 737.452 486.044 736.989C484.467 736.073 482.959 735.08 481.447 734.131C478.465 732.169 475.573 730.214 472.839 728.199C467.334 724.222 462.372 720.149 457.897 716.282C453.414 712.421 449.474 708.696 446.051 705.33C442.628 701.963 439.723 698.95 437.375 696.43C435.02 693.916 433.249 691.869 432.042 690.475C430.837 689.076 430.216 688.313 430.216 688.313Z" fill="#4B4A49"/>
<path d="M477.859 676.28C477.859 676.28 478.031 677.322 478.41 679.265C478.783 681.209 479.389 684.049 480.201 687.651C481.02 691.252 482.095 695.606 483.49 700.551C484.892 705.495 486.611 711.032 488.744 716.975C490.894 722.908 493.478 729.249 496.727 735.684C499.994 742.097 503.929 748.651 509.023 754.552C509.644 755.303 510.333 755.995 510.987 756.724L512.024 757.766C512.366 758.119 512.718 758.461 513.084 758.79C514.501 760.158 516.052 761.388 517.641 762.574C519.251 763.73 520.951 764.769 522.719 765.688C524.506 766.566 526.352 767.341 528.27 767.916C530.196 768.458 532.165 768.882 534.174 769.058C536.179 769.216 538.21 769.272 540.231 769.046L540.991 768.983C541.243 768.954 541.494 768.909 541.746 768.873L543.258 768.648C543.269 768.647 543.366 768.629 543.307 768.643L543.403 768.621L543.596 768.579L543.982 768.494L544.755 768.324L545.527 768.153C545.784 768.095 546.007 768.012 546.248 767.944L547.673 767.515C548.145 767.346 548.616 767.153 549.089 766.974L549.797 766.702L550.482 766.375C550.937 766.155 551.399 765.947 551.849 765.717C553.627 764.75 555.333 763.645 556.904 762.358C558.452 761.047 559.944 759.655 561.244 758.082L561.746 757.507L562.216 756.904L563.154 755.695L564.026 754.437L564.462 753.809L564.868 753.159L565.676 751.859L566.427 750.524C566.943 749.644 567.377 748.719 567.841 747.812C571.376 740.452 573.568 732.584 575.072 724.886C576.557 717.17 577.399 709.586 577.89 702.375C578.364 695.16 578.525 688.313 578.496 681.993C578.416 669.349 577.749 658.809 577.1 651.452C576.771 647.774 576.497 644.883 576.276 642.915C576.061 640.947 575.923 639.9 575.923 639.9C575.923 639.9 576.108 640.94 576.412 642.897C576.711 644.855 577.153 647.728 577.589 651.401C578.032 655.073 578.521 659.539 578.952 664.676C579.39 669.812 579.77 675.62 579.946 681.968C580.136 688.315 580.14 695.204 579.772 702.485C579.404 709.762 578.706 717.444 577.259 725.298C576.537 729.223 575.636 733.192 574.471 737.149C573.304 741.104 571.89 745.059 570.037 748.874C569.558 749.82 569.108 750.783 568.573 751.707L567.792 753.105L566.949 754.474L566.525 755.157L566.068 755.822L565.151 757.153L564.163 758.438L563.666 759.079L563.133 759.695C561.755 761.372 560.16 762.878 558.495 764.295C556.803 765.689 554.959 766.901 553.024 767.952C552.534 768.201 552.031 768.427 551.535 768.664L550.788 769.015L550.018 769.31C549.502 769.504 548.993 769.708 548.472 769.892L546.863 770.37C546.596 770.444 546.321 770.538 546.063 770.596L545.289 770.764L544.516 770.931L544.13 771.015L543.937 771.057L543.84 771.078L543.694 771.103L542.078 771.339C541.809 771.376 541.541 771.423 541.271 771.452L540.456 771.518C538.29 771.749 536.1 771.687 533.938 771.507C531.771 771.307 529.644 770.845 527.571 770.251C525.505 769.623 523.521 768.791 521.618 767.834C519.738 766.833 517.945 765.708 516.257 764.468C514.593 763.202 512.978 761.889 511.514 760.447C511.136 760.098 510.772 759.738 510.42 759.368L509.353 758.271C508.681 757.509 507.973 756.781 507.339 755.999C502.116 749.849 498.248 743.08 495.043 736.52C491.845 729.941 489.397 723.478 487.38 717.45C485.356 711.421 483.822 705.799 482.587 700.792C481.353 695.783 480.422 691.386 479.723 687.753C479.013 684.122 478.573 681.248 478.276 679.29C477.984 677.329 477.859 676.28 477.859 676.28Z" fill="#4B4A49"/>
</svg>
