<svg width="86" height="25" viewBox="0 0 86 25" fill="none" xmlns="http://www.w3.org/2000/svg">
<path d="M21.0337 13.9342C21.3583 13.2945 21.544 12.5938 21.5787 11.8778C21.6134 11.1618 21.4963 10.4465 21.2351 9.77863C20.9738 9.11074 20.5743 8.50526 20.0626 8.00167C19.5508 7.49808 18.9384 7.10767 18.2651 6.85594C18.0078 7.69991 17.567 8.47696 16.9741 9.13177C17.5499 9.24831 18.0675 9.55985 18.4392 10.0135C18.8108 10.4672 19.0136 11.035 19.0131 11.6207C19.0126 12.2065 18.8089 12.774 18.4365 13.2271C18.0642 13.6801 17.5461 13.9908 16.9701 14.1064C16.3941 14.2221 15.7958 14.1355 15.2765 13.8614C14.7573 13.5873 14.3491 13.1426 14.1213 12.6028C13.8935 12.0629 13.86 11.461 14.0266 10.8993C14.1931 10.3376 14.5495 9.85065 15.0351 9.521C15.8377 9.06267 16.5006 8.39587 16.9532 7.59167C17.4057 6.78744 17.6309 5.87587 17.6049 4.95411C17.5789 4.03235 17.3025 3.13488 16.8053 2.35731C16.308 1.57978 15.6086 0.951224 14.7814 0.53866C13.9541 0.126095 13.0302 -0.0550263 12.1078 0.0145249C11.1855 0.0841083 10.2994 0.401833 9.54388 0.933788C8.78834 1.46574 8.19169 2.19209 7.8175 3.03539C7.44332 3.87869 7.30557 4.80738 7.41897 5.72257C8.2896 5.55924 9.18575 5.591 10.0425 5.81558C9.87572 5.23844 9.91877 4.6211 10.1641 4.07251C10.4095 3.52395 10.8413 3.07943 11.3834 2.81744C11.9256 2.55542 12.5431 2.49279 13.1271 2.64061C13.711 2.7884 14.2238 3.13712 14.575 3.6252C14.9261 4.11327 15.0929 4.70933 15.0461 5.30815C14.9993 5.90696 14.7417 6.47001 14.319 6.89792C13.8962 7.32584 13.3354 7.5911 12.7355 7.64686C12.1356 7.70263 11.5353 7.54533 11.0404 7.2027C10.2973 6.71052 9.41128 6.47795 8.52134 6.54148C7.32408 6.54795 6.16707 6.97305 5.25193 7.7427C4.33683 8.51238 3.72161 9.57776 3.51356 10.7532C3.30551 11.9287 3.51781 13.1396 4.11343 14.175C4.70905 15.2105 5.65025 16.0047 6.77295 16.4193C7.46488 16.6786 8.04165 17.1749 8.40013 17.8194C8.75857 18.4639 8.87534 19.2145 8.72949 19.937C8.58366 20.6594 8.18474 21.3066 7.60411 21.7626C7.02348 22.2187 6.29903 22.4539 5.56035 22.4263C4.82167 22.3986 4.11697 22.1098 3.57235 21.6115C3.02769 21.1133 2.67863 20.4381 2.58761 19.7068C2.49658 18.9755 2.66954 18.2357 3.07552 17.6199C3.48151 17.004 4.09403 16.5523 4.80352 16.3455C4.09554 15.7891 3.5208 15.0824 3.12107 14.2769C1.96087 14.8609 1.03656 15.8238 0.50229 17.005C-0.0319842 18.1862 -0.143928 19.5143 0.185125 20.7678C0.514179 22.0214 1.26434 23.1245 2.31051 23.8934C3.35667 24.6623 4.63562 25.0503 5.93405 24.9929C7.23247 24.9355 8.47191 24.436 9.44567 23.5778C10.4194 22.7196 11.0687 21.5545 11.2851 20.2769C11.5015 18.9992 11.272 17.6862 10.6349 16.5568C9.99779 15.4274 8.99157 14.5499 7.78407 14.0706C7.33077 13.9345 6.92431 13.6755 6.61004 13.3225C6.29578 12.9695 6.08602 12.5364 6.00419 12.0715C5.92237 11.6067 5.97166 11.1283 6.1466 10.6897C6.32155 10.2511 6.61523 9.86962 6.99494 9.58773C7.37466 9.30584 7.82545 9.13462 8.29703 9.09321C8.76865 9.05177 9.24251 9.14177 9.6658 9.35315C10.0891 9.56449 10.4452 9.88892 10.6944 10.2902C10.9435 10.6916 11.076 11.154 11.077 11.626C11.0739 12.1298 10.9228 12.6218 10.6424 13.041C10.3619 13.4602 9.96443 13.7883 9.49896 13.9847C10.2217 14.4996 10.8335 15.1539 11.298 15.9087C11.7514 15.6155 12.155 15.2515 12.4947 14.833C13.183 15.6816 14.1262 16.2877 15.1857 16.5623C16.2451 16.8369 17.365 16.7655 18.3807 16.3586C19.0833 16.1401 19.8407 16.1758 20.5195 16.4594C21.1983 16.7429 21.755 17.2562 22.0914 17.9088C22.4279 18.5614 22.5225 19.3114 22.3587 20.0267C22.1949 20.7421 21.7832 21.3768 21.196 21.8192C20.6088 22.2616 19.8839 22.4832 19.1489 22.445C18.4139 22.4068 17.716 22.1113 17.1782 21.6105C16.6403 21.1097 16.2969 20.4356 16.2086 19.7072C16.1203 18.9788 16.2926 18.2427 16.6953 17.6285C15.7946 17.6616 14.8982 17.4916 14.0727 17.131C13.8587 17.5355 13.6356 18.5839 13.6356 19.331C13.6348 20.3777 13.925 21.404 14.4737 22.2963C15.0225 23.1886 15.8085 23.9118 16.7445 24.3858C17.6805 24.8598 18.7299 25.066 19.7763 24.9815C20.8228 24.8971 21.8252 24.5253 22.6726 23.9073C23.5199 23.2894 24.179 22.4495 24.5766 21.4809C24.9742 20.5123 25.095 19.4527 24.9253 18.4198C24.7557 17.387 24.3023 16.4211 23.6156 15.6295C22.9288 14.8379 22.0355 14.2514 21.0347 13.9352L21.0337 13.9342Z" fill="#06122F"/>
<path d="M46.702 19.7317C46.5651 19.7298 46.4323 19.685 46.3224 19.6035C46.2125 19.522 46.1305 19.408 46.0886 19.2775C45.9199 18.775 45.7455 18.2745 45.5652 17.776C45.3291 17.1206 45.1051 16.4608 44.8933 15.797H38.0998C37.8827 16.4726 37.6617 17.137 37.4371 17.7892C37.2648 18.2884 37.0943 18.7858 36.9268 19.2803C36.8849 19.4096 36.8035 19.5226 36.6945 19.6035C36.5855 19.6844 36.4539 19.7292 36.3183 19.7317H34.6537C34.5472 19.7287 34.443 19.7005 34.3496 19.6493C34.2562 19.5981 34.1763 19.5253 34.1164 19.4371C34.0565 19.3488 34.0184 19.2476 34.0052 19.1417C33.992 19.0358 34.0041 18.9283 34.0404 18.828C34.531 17.3904 35.001 16.0419 35.4495 14.7835C35.9878 13.2717 36.5167 11.8397 37.0373 10.4875C37.534 9.19362 38.0478 7.90634 38.5784 6.62598C39.0667 5.4548 39.5726 4.29106 40.096 3.13515C40.112 3.09597 40.1394 3.06235 40.1741 3.03852C40.2092 3.01467 40.2502 3.00161 40.2926 3.00095H42.8062C42.8487 3.0017 42.89 3.01487 42.9248 3.03891C42.9598 3.06292 42.9868 3.09671 43.0029 3.13607C44.0984 5.55443 45.1194 8.00608 46.0643 10.4875C46.5829 11.8388 47.1167 13.2708 47.6653 14.7835C48.1204 16.0419 48.5939 17.3904 49.0873 18.828C49.1238 18.9284 49.136 19.036 49.1227 19.1419C49.1093 19.2479 49.0713 19.3492 49.0113 19.4374C48.9513 19.5257 48.8711 19.5984 48.7778 19.6496C48.6842 19.7007 48.5797 19.7289 48.4733 19.7317H46.702ZM41.7951 6.96943C41.7725 6.90809 41.7315 6.85519 41.6778 6.81786C41.6243 6.78052 41.5604 6.7605 41.4951 6.7605C41.4297 6.7605 41.3662 6.78052 41.3124 6.81786C41.2589 6.85519 41.2179 6.90809 41.1951 6.96943C40.9161 7.66385 40.6099 8.45681 40.2775 9.34733C39.7859 10.669 39.3103 11.9967 38.8508 13.3299H44.1403C43.6442 11.8979 43.1648 10.5616 42.7014 9.32294C42.3672 8.42958 42.0648 7.64508 41.7951 6.96851V6.96943ZM69.7817 6.78832C70.7106 6.78832 71.4912 6.90937 72.1251 7.15054C72.7085 7.357 73.2298 7.70607 73.6457 8.16402C74.0339 8.62078 74.3102 9.16227 74.4525 9.74522C74.6212 10.4115 74.7026 11.0965 74.696 11.7853V18.8777C74.6975 19.0341 74.6443 19.1862 74.5463 19.3077C74.448 19.4293 74.3105 19.5128 74.1578 19.544C73.7758 19.6162 73.3002 19.6969 72.7308 19.7851C71.7511 19.9295 70.7616 19.9982 69.7716 19.9907C69.1062 19.9956 68.4426 19.9228 67.7941 19.7739C67.2369 19.6503 66.7114 19.4119 66.2513 19.0739C65.8197 18.7449 65.4766 18.3134 65.2532 17.8183C64.9963 17.2168 64.8736 16.5663 64.8938 15.9124C64.8724 15.2763 65.0111 14.6451 65.2972 14.0769C65.5612 13.5889 65.9394 13.1722 66.3992 12.8635C66.8902 12.5392 67.4377 12.3106 68.0131 12.1898C68.6419 12.051 69.2841 11.9821 69.9278 11.9842C70.6238 11.9866 71.3171 12.0758 71.9911 12.2498V11.7609C71.9926 11.4355 71.9537 11.1111 71.8753 10.7953C71.8028 10.4987 71.665 10.2223 71.4716 9.98639C71.2654 9.74564 71.0025 9.56021 70.7067 9.44681C70.3244 9.30726 69.9189 9.24196 69.512 9.25443C68.9137 9.24979 68.3158 9.29783 67.7258 9.39802C67.4909 9.44119 67.2746 9.48528 67.0771 9.53314C66.9883 9.55278 66.8968 9.55361 66.8076 9.53561C66.7188 9.51758 66.6345 9.48111 66.5605 9.42855C66.4862 9.37595 66.4242 9.30842 66.3775 9.23027C66.3312 9.15212 66.3015 9.06511 66.2905 8.97479L66.1408 7.95851C66.112 7.79403 66.1452 7.62473 66.2341 7.48343C66.3229 7.34212 66.4607 7.23889 66.6211 7.1937C66.8982 7.1224 67.225 7.05109 67.6014 6.97883C68.3208 6.84782 69.0512 6.78436 69.7826 6.78927L69.7817 6.78832ZM70.0149 17.6728C70.6749 17.6897 71.3358 17.6409 71.9867 17.5283V14.2927C71.4502 14.1448 70.8959 14.0719 70.3398 14.0759C70.0253 14.0759 69.7107 14.1003 69.3988 14.1482C69.1003 14.1921 68.8103 14.2834 68.5403 14.4184C68.2923 14.5404 68.0796 14.7263 67.926 14.9571C67.7627 15.2209 67.6813 15.5278 67.6931 15.8382C67.6931 16.5298 67.9017 17.0084 68.3202 17.274C68.7379 17.5386 69.3034 17.6728 70.0149 17.6738V17.6728ZM57.3636 18.2677C57.2546 17.9227 57.1768 17.5684 57.1313 17.2092C57.1296 17.1874 57.1224 17.1663 57.1108 17.1477C57.0993 17.129 57.0838 17.1132 57.0651 17.1016C57.0467 17.09 57.0256 17.0828 57.0039 17.0806C56.9819 17.0785 56.9599 17.0814 56.9394 17.0891C56.7318 17.1661 56.4752 17.2486 56.171 17.3359C55.7284 17.4548 55.2715 17.5116 54.8135 17.5048C54.0709 17.5048 53.5448 17.2871 53.2359 16.8527C52.9269 16.4191 52.7716 15.6947 52.7716 14.6812V10.0971H55.9996V8.00168C56.0026 7.91553 55.9717 7.83167 55.9131 7.76836C55.8546 7.70509 55.7738 7.66751 55.6877 7.66385H52.7716V4.52022C52.7725 4.46164 52.7502 4.40506 52.7098 4.36285C52.6691 4.32063 52.6135 4.29624 52.5553 4.29499L50.1819 4.66191C50.1234 4.66313 50.0679 4.68753 50.0275 4.72974C49.9868 4.77195 49.9645 4.82856 49.9657 4.88714V14.7056C49.9562 15.4544 50.0257 16.2033 50.1724 16.938C50.2895 17.5386 50.5348 18.1064 50.8925 18.6028C51.2483 19.0739 51.7257 19.437 52.2725 19.6538C52.853 19.894 53.5757 20.0151 54.4407 20.016C55.1524 20.016 55.7581 19.8809 56.2972 19.787C56.6457 19.7279 57.2588 19.5581 57.6417 19.4454C57.6672 19.4376 57.6907 19.4242 57.71 19.4062C57.7296 19.3881 57.745 19.3659 57.7548 19.3411C57.7646 19.3164 57.7691 19.2897 57.7673 19.2631C57.7655 19.2365 57.7578 19.2106 57.7447 19.1874C57.5843 18.8958 57.4566 18.5874 57.3636 18.2677ZM63.5128 17.4392C63.5086 17.4219 63.5012 17.4056 63.4905 17.3913C63.4801 17.377 63.4671 17.3648 63.4519 17.3556C63.4368 17.3463 63.4198 17.3402 63.4026 17.3374C63.3851 17.3347 63.367 17.3355 63.35 17.3397C63.0182 17.4194 62.6728 17.4245 62.3389 17.3547C62.1256 17.266 61.9325 17.1348 61.7715 16.969C61.6271 16.7902 61.5276 16.5795 61.4813 16.3544C61.4222 16.0607 61.3952 15.7615 61.4008 15.4619V3.22523C61.4017 3.16665 61.3794 3.11007 61.339 3.06786C61.2983 3.02564 61.2428 3.00125 61.1843 3L58.8102 3.36317C58.7811 3.36365 58.7526 3.36987 58.7259 3.38147C58.6992 3.39304 58.6751 3.40976 58.6549 3.43067C58.6347 3.45159 58.6189 3.47628 58.6083 3.50335C58.5976 3.53039 58.5925 3.55931 58.5928 3.58837V16.0081C58.586 16.5734 58.6525 17.1371 58.7915 17.685C58.9074 18.1486 59.1435 18.5727 59.4747 18.9162C59.8455 19.2709 60.2949 19.5318 60.7856 19.6763C61.2799 19.8283 63.2609 20.1399 64.2833 19.5055C64.2979 19.4965 64.3104 19.4845 64.3202 19.4703C64.3297 19.4561 64.3362 19.44 64.3392 19.423C64.3422 19.4061 64.3416 19.3887 64.3374 19.3721C64.3332 19.3554 64.3258 19.3398 64.3151 19.3263C64.0249 18.9386 63.8084 18.5005 63.6768 18.0341C63.6111 17.839 63.5562 17.6404 63.5128 17.4392ZM76.1875 19.2465C76.1845 19.3255 76.2104 19.4029 76.2597 19.4645C76.3093 19.526 76.3794 19.5676 76.4569 19.5815C77.6217 19.7589 79.8929 20.0216 81.3852 19.8274C83.5602 19.544 85.4203 18.3616 85.1366 15.5764C84.8212 12.7838 82.9798 12.3164 80.8422 11.8576C78.7329 11.454 78.7077 10.5184 79.0813 9.95917C79.278 9.7058 79.5483 9.52095 79.8545 9.42804C80.257 9.29197 80.6803 9.22629 81.1054 9.23566C81.7046 9.25725 82.3001 9.33326 82.885 9.46184C83.1164 9.50688 83.3297 9.55471 83.5246 9.60445C83.6131 9.6276 83.7058 9.63167 83.7958 9.6165C83.8861 9.6013 83.9722 9.56715 84.0486 9.51631C84.1246 9.46544 84.1894 9.39901 84.2381 9.32139C84.2868 9.24375 84.3189 9.15667 84.3316 9.06582L84.4953 8.04859C84.5256 7.88444 84.4935 7.71493 84.4062 7.57294C84.3186 7.43095 84.1816 7.32659 84.0218 7.28004C83.7447 7.20498 83.4179 7.12802 83.0416 7.05109C82.3242 6.90806 81.5952 6.83235 80.8639 6.82491C79.9351 6.80992 79.1523 6.91877 78.5149 7.15054C77.9297 7.34649 77.4018 7.68506 76.9794 8.13588C76.5841 8.58731 76.2983 9.12431 76.1444 9.70488C75.6228 11.4118 76.6114 13.6743 78.5954 14.074C80.5802 14.4748 82.3685 14.2805 82.2728 15.9978C82.1558 17.6681 77.9689 17.121 76.3651 16.8273C76.3488 16.8243 76.3319 16.8249 76.3155 16.8292C76.2995 16.8334 76.2843 16.8412 76.2716 16.852C76.2588 16.8627 76.2484 16.8762 76.2413 16.8914C76.2341 16.9066 76.2306 16.9231 76.2306 16.9399L76.1875 19.2465Z" fill="#06122F"/>
</svg>
